<svg width="512" height="512" viewBox="0 0 512 512" fill="none" xmlns="http://www.w3.org/2000/svg">
  <rect width="512" height="512" rx="256" fill="url(#paint0_linear)" />
  <g filter="url(#filter0_d)">
    <path d="M346 180C346 174.477 341.523 170 336 170H186C180.477 170 176 174.477 176 180V330C176 335.523 180.477 340 186 340H336C341.523 340 346 335.523 346 330V180Z" fill="url(#paint1_linear)" />
  </g>
  <path d="M283 206.5C283 217.822 273.822 227 262.5 227C251.178 227 242 217.822 242 206.5C242 195.178 251.178 186 262.5 186C273.822 186 283 195.178 283 206.5Z" fill="white" />
  <path d="M265 268.5C265 273.747 260.747 278 255.5 278C250.253 278 246 273.747 246 268.5C246 263.253 250.253 259 255.5 259C260.747 259 265 263.253 265 268.5Z" fill="white" />
  <path d="M298 285C298 290.523 293.523 295 288 295C282.477 295 278 290.523 278 285C278 279.477 282.477 275 288 275C293.523 275 298 279.477 298 285Z" fill="white" />
  <path d="M225 297C225 302.523 220.523 307 215 307C209.477 307 205 302.523 205 297C205 291.477 209.477 287 215 287C220.523 287 225 291.477 225 297Z" fill="white" />
  <path fill-rule="evenodd" clip-rule="evenodd" d="M262.5 215C268.299 215 273 210.299 273 204.5C273 198.701 268.299 194 262.5 194C256.701 194 252 198.701 252 204.5C252 210.299 256.701 215 262.5 215ZM262.5 227C273.822 227 283 217.822 283 206.5C283 195.178 273.822 186 262.5 186C251.178 186 242 195.178 242 206.5C242 217.822 251.178 227 262.5 227Z" fill="#E2E2E2" />
  <rect x="260" y="215" width="5" height="54" rx="2.5" fill="white" />
  <rect x="213" y="287" width="5" height="48" rx="2.5" transform="rotate(-30 213 287)" fill="white" />
  <rect x="288" y="282" width="5" height="40" rx="2.5" transform="rotate(40 288 282)" fill="white" />
  <defs>
    <filter id="filter0_d" x="160" y="158" width="202" height="202" filterUnits="userSpaceOnUse" color-interpolation-filters="sRGB">
      <feFlood flood-opacity="0" result="BackgroundImageFix" />
      <feColorMatrix in="SourceAlpha" type="matrix" values="0 0 0 0 0 0 0 0 0 0 0 0 0 0 0 0 0 0 127 0" />
      <feOffset dy="4" />
      <feGaussianBlur stdDeviation="8" />
      <feColorMatrix type="matrix" values="0 0 0 0 0 0 0 0 0 0 0 0 0 0 0 0 0 0 0.15 0" />
      <feBlend mode="normal" in2="BackgroundImageFix" result="effect1_dropShadow" />
      <feBlend mode="normal" in="SourceGraphic" in2="effect1_dropShadow" result="shape" />
    </filter>
    <linearGradient id="paint0_linear" x1="0" y1="0" x2="512" y2="512" gradientUnits="userSpaceOnUse">
      <stop stop-color="#8B5CF6" />
      <stop offset="1" stop-color="#3B82F6" />
    </linearGradient>
    <linearGradient id="paint1_linear" x1="176" y1="170" x2="346" y2="340" gradientUnits="userSpaceOnUse">
      <stop stop-color="#EC4899" />
      <stop offset="1" stop-color="#8B5CF6" />
    </linearGradient>
  </defs>
</svg> 